<?xml version="1.0" standalone="no"?>
<!DOCTYPE svg PUBLIC "-//W3C//DTD SVG 20010904//EN"
 "http://www.w3.org/TR/2001/REC-SVG-20010904/DTD/svg10.dtd">
<svg version="1.0" xmlns="http://www.w3.org/2000/svg"
 width="700.000000pt" height="700.000000pt" viewBox="0 0 700.000000 700.000000"
 preserveAspectRatio="xMidYMid meet">
<metadata>
Created by potrace 1.14, written by Peter Selinger 2001-2017
</metadata>
<g transform="translate(0.000000,700.000000) scale(0.100000,-0.100000)"
fill="#000000" stroke="none">
<path d="M195 6971 c-73 -35 -135 -98 -169 -171 l-26 -55 0 -3245 0 -3245 26
-55 c34 -73 96 -136 169 -171 l60 -29 3245 0 3245 0 60 29 c73 35 135 98 169
171 l26 55 0 3245 0 3245 -29 60 c-35 73 -98 135 -171 169 l-55 26 -3245 0
-3245 0 -60 -29z m2364 -2245 c151 -36 259 -94 357 -192 188 -188 245 -465
138 -676 -32 -63 -125 -163 -211 -226 -35 -25 -63 -49 -63 -53 0 -4 30 -26 68
-50 143 -93 260 -237 308 -379 29 -85 27 -271 -4 -370 -40 -126 -88 -206 -182
-301 -70 -71 -100 -94 -170 -127 -47 -23 -123 -51 -170 -64 -83 -21 -99 -22
-767 -25 l-683 -4 0 1239 c0 681 3 1242 7 1246 4 4 298 5 653 3 569 -3 654 -6
719 -21z m2821 -191 l0 -215 -620 0 -620 0 0 -280 0 -280 545 0 545 0 0 -215
0 -215 -545 0 -545 0 0 -535 0 -535 -255 0 -255 0 0 1245 0 1245 875 0 875 0
0 -215z m818 -2027 l2 -248 -260 0 -260 0 0 243 c0 134 3 247 7 251 4 3 119 5
257 4 l251 -3 3 -247z"/>
<path d="M1700 4040 l0 -281 348 3 c391 4 403 6 486 79 55 49 80 109 80 198 1
89 -24 150 -80 200 -82 72 -95 74 -486 79 l-348 3 0 -281z"/>
<path d="M1700 3004 l0 -326 358 4 c332 4 362 6 423 26 157 52 233 195 199
376 -23 124 -100 201 -230 230 -55 13 -137 16 -409 16 l-341 0 0 -326z"/>
</g>
</svg>
